<svg xmlns="http://www.w3.org/2000/svg" width="16" height="11" viewBox="0 0 16 11"><title>Bahamas</title><defs><linearGradient id="fbs-gloss" gradientUnits="userSpaceOnUse" x1="1.005" y1="1.097" x2="10.763" y2="11.752"><stop offset="0.000" stop-color="#fff" stop-opacity="0.439"/><stop offset="0.363" stop-color="#fff" stop-opacity="0.347"/><stop offset="0.822" stop-color="#fff" stop-opacity="0.150"/><stop offset="1.000" stop-color="#fff" stop-opacity="0.082"/></linearGradient><linearGradient id="fbs-shade" gradientUnits="userSpaceOnUse" x1="3.338" y1="3.645" x2="11.482" y2="12.537"><stop offset="0.000" stop-color="#000" stop-opacity="0.000"/><stop offset="1.000" stop-color="#000" stop-opacity="0.054"/></linearGradient><linearGradient id="fbs-edge" gradientUnits="userSpaceOnUse" x1="2.330" y1="2.544" x2="11.428" y2="12.478"><stop offset="0.000" stop-color="#000" stop-opacity="0.030"/><stop offset="0.275" stop-color="#000" stop-opacity="0.105"/><stop offset="1.000" stop-color="#000" stop-opacity="0.280"/></linearGradient><clipPath id="fbs-clip"><rect width="16" height="11"/></clipPath></defs><g clip-path="url(#fbs-clip)"><g transform="scale(1.04447 0.95743)"><defs><clipPath id="fbs-bs-a1"><path fill-opacity=".7" d="M0 0h15.32v11.49H0z"/></clipPath></defs><g fill-rule="evenodd" clip-path="url(#fbs-bs-a1)"><path fill="#fff" d="M23.47 11.49H.04V.04h23.43z"/><path fill="#fcdd00" d="M23.47 8.25H.04V3.43h23.43z"/><path fill="#019fdc" d="M23.47 11.49H.04V7.67h23.43zm0-7.63H.04V.05h23.43z"/><path fill="#000001" d="M.02 0C.08 0 9.4 5.67 9.4 5.67L0 11.47z"/></g></g><rect x="1" y="1" width="14" height="9" fill="url(#fbs-gloss)"/><path d="M1 1h14v9H1zM2 2v7h12V2z" fill="#fff" fill-opacity="0.166" fill-rule="evenodd"/><rect x="1" y="1" width="14" height="9" fill="url(#fbs-shade)"/><path d="M0 0h16v11H0zM1 1v9h14V1z" fill="url(#fbs-edge)" fill-rule="evenodd"/></g></svg>
