<svg xmlns="http://www.w3.org/2000/svg" xmlns:xlink="http://www.w3.org/1999/xlink" width="16" height="11" viewBox="0 0 16 11"><title>Democratic Republic of the Congo</title><defs><linearGradient id="fcd-gloss" gradientUnits="userSpaceOnUse" x1="1.352" y1="1.476" x2="11.384" y2="12.430"><stop offset="0.000" stop-color="#fff" stop-opacity="0.400"/><stop offset="0.308" stop-color="#fff" stop-opacity="0.314"/><stop offset="0.856" stop-color="#fff" stop-opacity="0.061"/><stop offset="1.000" stop-color="#fff" stop-opacity="0.021"/></linearGradient><linearGradient id="fcd-shade" gradientUnits="userSpaceOnUse" x1="2.739" y1="2.991" x2="11.482" y2="12.537"><stop offset="0.000" stop-color="#000" stop-opacity="0.000"/><stop offset="1.000" stop-color="#000" stop-opacity="0.060"/></linearGradient><linearGradient id="fcd-edge" gradientUnits="userSpaceOnUse" x1="2.391" y1="2.611" x2="11.076" y2="12.094"><stop offset="0" stop-color="#ff0000"/><stop offset="0.463" stop-color="#f20000"/><stop offset="1" stop-color="#dd0000"/></linearGradient><linearGradient id="fcd-edge1" gradientUnits="userSpaceOnUse" x1="2.391" y1="2.611" x2="11.076" y2="12.094"><stop offset="0" stop-color="#ffff00"/><stop offset="0.463" stop-color="#f2f200"/><stop offset="1" stop-color="#dddd00"/></linearGradient><linearGradient id="fcd-edge2" gradientUnits="userSpaceOnUse" x1="2.391" y1="2.611" x2="11.076" y2="12.094"><stop offset="0" stop-color="#0a84ff"/><stop offset="0.463" stop-color="#0057ef"/><stop offset="1" stop-color="#0023da"/></linearGradient><clipPath id="fcd-clip"><rect width="16" height="11"/></clipPath></defs><g clip-path="url(#fcd-clip)"><g id="fcd-art"><g transform="scale(1.04447 0.95743)"><path fill="#39f" d="M0 0h15.32v11.49H0z"/><path fill="#ff0" d="M0.69 2.3L2.3 2.3L2.8 0.69L3.29 2.3L4.9 2.3L3.6 3.29L4.1 4.9L2.8 3.91L1.49 4.9L1.99 3.29zM13.33 0L0 8L0 11.49L1.99 11.49L15.32 3.49L15.32 0z"/><path fill="red" d="M15.32 0 0 9.19v2.3L15.32 2.3z"/></g></g><use xlink:href="#fcd-art"/><use xlink:href="#fcd-art"/><rect x="1" y="1" width="14" height="9" fill="url(#fcd-gloss)"/><path d="M1 1h14v9H1zM2 2v7h12V2z" fill="#fff" fill-opacity="0.164" fill-rule="evenodd"/><rect x="1" y="1" width="14" height="9" fill="url(#fcd-shade)"/><path fill="url(#fcd-edge2)" d="M0 0h16v11H0zM1 1v9h14V1z"/><path fill="url(#fcd-edge1)" d="M0 11H16V10H0z"/><path fill="url(#fcd-edge)" d="M16 1V10H15V1z"/><path fill="url(#fcd-edge1)" d="M13.67 0H16V1H13.67zM0 7.58V10H1V7.19zM16 2.28V10H15V2.68z"/><path fill="url(#fcd-edge2)" d="M2.34 11H16V10H2.34z"/><path fill="url(#fcd-edge)" d="M0 8.72V10H1V8.33z"/><path fill="url(#fcd-edge2)" d="M16 3.42V10H15V3.81z"/></g></svg>
