<svg xmlns="http://www.w3.org/2000/svg" xmlns:xlink="http://www.w3.org/1999/xlink" width="16" height="11" viewBox="0 0 16 11"><title>Germany</title><defs><linearGradient id="fde-gloss" gradientUnits="userSpaceOnUse" x1="1.352" y1="1.476" x2="11.384" y2="12.430"><stop offset="0.000" stop-color="#fff" stop-opacity="0.400"/><stop offset="0.308" stop-color="#fff" stop-opacity="0.314"/><stop offset="0.856" stop-color="#fff" stop-opacity="0.061"/><stop offset="1.000" stop-color="#fff" stop-opacity="0.021"/></linearGradient><linearGradient id="fde-shade" gradientUnits="userSpaceOnUse" x1="2.739" y1="2.991" x2="11.482" y2="12.537"><stop offset="0.000" stop-color="#000" stop-opacity="0.000"/><stop offset="1.000" stop-color="#000" stop-opacity="0.060"/></linearGradient><linearGradient id="fde-edge" gradientUnits="userSpaceOnUse" x1="2.391" y1="2.611" x2="11.076" y2="12.094"><stop offset="0" stop-color="#ff0000"/><stop offset="0.463" stop-color="#f20000"/><stop offset="1" stop-color="#dd0000"/></linearGradient><linearGradient id="fde-edge1" gradientUnits="userSpaceOnUse" x1="2.391" y1="2.611" x2="11.076" y2="12.094"><stop offset="0" stop-color="#ffd200"/><stop offset="0.463" stop-color="#f2b700"/><stop offset="1" stop-color="#dd9700"/></linearGradient><clipPath id="fde-clip"><rect width="16" height="11"/></clipPath></defs><g clip-path="url(#fde-clip)"><g id="fde-art"><g transform="scale(1.04447 0.95743)"><path fill="#ffd800" d="M0 7.66h15.32v3.83H0z"/><path fill="#000001" d="M0 0h15.32v3.83H0z"/><path fill="red" d="M0 3.83h15.32v3.83H0z"/></g></g><use xlink:href="#fde-art"/><use xlink:href="#fde-art"/><rect x="1" y="1" width="14" height="9" fill="url(#fde-gloss)"/><path d="M1 1h14v9H1zM2 2v7h12V2z" fill="#fff" fill-opacity="0.164" fill-rule="evenodd"/><rect x="1" y="1" width="14" height="9" fill="url(#fde-shade)"/><path fill="#000000" d="M0 0h16v11H0zM1 1v9h14V1z"/><path fill="url(#fde-edge)" d="M0 3.66V10H1V3.66zM16 3.66V10H15V3.66z"/><path fill="url(#fde-edge1)" d="M0 11H16V10H0zM0 7.34V10H1V7.34zM16 7.34V10H15V7.34z"/></g></svg>
