<svg xmlns="http://www.w3.org/2000/svg" width="16" height="11" viewBox="0 0 16 11"><title>Japan</title><defs><linearGradient id="fjp-gloss" gradientUnits="userSpaceOnUse" x1="1.352" y1="1.476" x2="11.384" y2="12.430"><stop offset="0.000" stop-color="#fff" stop-opacity="0.400"/><stop offset="0.308" stop-color="#fff" stop-opacity="0.314"/><stop offset="0.856" stop-color="#fff" stop-opacity="0.061"/><stop offset="1.000" stop-color="#fff" stop-opacity="0.021"/></linearGradient><linearGradient id="fjp-shade" gradientUnits="userSpaceOnUse" x1="2.739" y1="2.991" x2="11.482" y2="12.537"><stop offset="0.000" stop-color="#000" stop-opacity="0.000"/><stop offset="1.000" stop-color="#000" stop-opacity="0.060"/></linearGradient><linearGradient id="fjp-edge" gradientUnits="userSpaceOnUse" x1="2.625" y1="2.866" x2="11.802" y2="12.886"><stop offset="0.000" stop-color="#000" stop-opacity="0.048"/><stop offset="0.295" stop-color="#000" stop-opacity="0.094"/><stop offset="1.000" stop-color="#000" stop-opacity="0.217"/></linearGradient><clipPath id="fjp-clip"><rect width="16" height="11"/></clipPath></defs><g clip-path="url(#fjp-clip)"><g transform="scale(1.04447 0.95743)"><defs><clipPath id="fjp-jp-a1"><path fill-opacity=".7" d="M0 0h15.32v11.49H0z"/></clipPath></defs><g fill-rule="evenodd" clip-path="url(#fjp-jp-a1)"><path fill="#fff" d="M-.96 0h17.24v11.49H-.96z"/><path fill="red" d="M4.09 5.75a3.57 3.57 0 1 0 7.14 0 3.57 3.57 0 1 0-7.14 0"/></g></g><rect x="1" y="1" width="14" height="9" fill="url(#fjp-gloss)"/><path d="M1 1h14v9H1zM2 2v7h12V2z" fill="#fff" fill-opacity="0.164" fill-rule="evenodd"/><rect x="1" y="1" width="14" height="9" fill="url(#fjp-shade)"/><path d="M0 0h16v11H0zM1 1v9h14V1z" fill="url(#fjp-edge)" fill-rule="evenodd"/></g></svg>
