<svg xmlns="http://www.w3.org/2000/svg" width="16" height="11" viewBox="0 0 16 11"><title>Comoros</title><defs><linearGradient id="fkm-gloss" gradientUnits="userSpaceOnUse" x1="1.005" y1="1.097" x2="10.763" y2="11.752"><stop offset="0.000" stop-color="#fff" stop-opacity="0.439"/><stop offset="0.363" stop-color="#fff" stop-opacity="0.347"/><stop offset="0.822" stop-color="#fff" stop-opacity="0.150"/><stop offset="1.000" stop-color="#fff" stop-opacity="0.082"/></linearGradient><linearGradient id="fkm-shade" gradientUnits="userSpaceOnUse" x1="3.338" y1="3.645" x2="11.482" y2="12.537"><stop offset="0.000" stop-color="#000" stop-opacity="0.000"/><stop offset="1.000" stop-color="#000" stop-opacity="0.054"/></linearGradient><linearGradient id="fkm-edge" gradientUnits="userSpaceOnUse" x1="2.330" y1="2.544" x2="11.428" y2="12.478"><stop offset="0.000" stop-color="#000" stop-opacity="0.030"/><stop offset="0.275" stop-color="#000" stop-opacity="0.105"/><stop offset="1.000" stop-color="#000" stop-opacity="0.280"/></linearGradient><clipPath id="fkm-clip"><rect width="16" height="11"/></clipPath></defs><g clip-path="url(#fkm-clip)"><g transform="scale(1.04447 0.95743)"><defs><clipPath id="fkm-km-a1"><path fill-opacity=".7" d="M0 0h15.32v11.49H0z"/></clipPath></defs><g fill-rule="evenodd" clip-path="url(#fkm-km-a1)"><path fill="#f8dc00" d="M0 0h17.25v2.87H0z"/><path fill="#fff" d="M0 2.87h17.25v2.87H0z"/><path fill="#e80009" d="M0 5.74h17.25v2.88H0z"/><path fill="#072ecd" d="M0 8.62h17.25v2.87H0z"/><path fill="#04a208" d="M0 0v11.49l8.57-5.73z"/><path fill="#fff" d="M3.53 3.17C1.62 3.07.75 4.59.75 5.77c0 1.39 1.31 2.54 2.53 2.47a2.8 2.8 0 0 1-1.46-2.47 2.7 2.7 0 0 1 1.71-2.6"/><path fill="#fff" d="m3.5 4.42-.27-.21-.33.11.12-.33-.2-.28.34.02.21-.28.09.33.33.11-.29.19zm-.01 1.17-.27-.21-.32.1.12-.32-.2-.28.34.01.2-.27.1.33.32.11-.28.19zm.01 1.18-.27-.21-.33.1.12-.32-.2-.28.34.01.21-.27.09.33.33.11-.29.19zm-.01 1.19-.27-.21-.33.1.12-.32-.2-.28.35.02.2-.28.09.33.33.11-.29.19z"/></g></g><rect x="1" y="1" width="14" height="9" fill="url(#fkm-gloss)"/><path d="M1 1h14v9H1zM2 2v7h12V2z" fill="#fff" fill-opacity="0.166" fill-rule="evenodd"/><rect x="1" y="1" width="14" height="9" fill="url(#fkm-shade)"/><path d="M0 0h16v11H0zM1 1v9h14V1z" fill="url(#fkm-edge)" fill-rule="evenodd"/></g></svg>
