<svg xmlns="http://www.w3.org/2000/svg" xmlns:xlink="http://www.w3.org/1999/xlink" width="16" height="11" viewBox="0 0 16 11"><title>Liberia</title><defs><linearGradient id="flr-gloss" gradientUnits="userSpaceOnUse" x1="1.352" y1="1.476" x2="11.384" y2="12.430"><stop offset="0.000" stop-color="#fff" stop-opacity="0.400"/><stop offset="0.308" stop-color="#fff" stop-opacity="0.314"/><stop offset="0.856" stop-color="#fff" stop-opacity="0.061"/><stop offset="1.000" stop-color="#fff" stop-opacity="0.021"/></linearGradient><linearGradient id="flr-shade" gradientUnits="userSpaceOnUse" x1="2.739" y1="2.991" x2="11.482" y2="12.537"><stop offset="0.000" stop-color="#000" stop-opacity="0.000"/><stop offset="1.000" stop-color="#000" stop-opacity="0.060"/></linearGradient><linearGradient id="flr-edge" gradientUnits="userSpaceOnUse" x1="2.391" y1="2.611" x2="11.076" y2="12.094"><stop offset="0" stop-color="#000cc4"/><stop offset="0.463" stop-color="#0000a5"/><stop offset="1" stop-color="#000081"/></linearGradient><linearGradient id="flr-edge1" gradientUnits="userSpaceOnUse" x1="2.391" y1="2.611" x2="11.076" y2="12.094"><stop offset="0" stop-color="#f4f4f4"/><stop offset="0.463" stop-color="#e4e4e4"/><stop offset="1" stop-color="#d0d0d0"/></linearGradient><linearGradient id="flr-edge2" gradientUnits="userSpaceOnUse" x1="2.391" y1="2.611" x2="11.076" y2="12.094"><stop offset="0" stop-color="#ff0000"/><stop offset="0.463" stop-color="#f20000"/><stop offset="1" stop-color="#dd0000"/></linearGradient><clipPath id="flr-clip"><rect width="16" height="11"/></clipPath></defs><g clip-path="url(#flr-clip)"><g id="flr-art"><g><path fill="#fff" d="M0 0h16v11H0z"/><path fill="red" d="M0 0h16v1H0zm0 2h16v1H0zm0 2h16v1H0zm0 2h16v1H0zm0 2h16v1H0zm0 2h16v1H0z"/><path fill="#03c" d="M0 0h5v5H0z"/><path fill="#fff" d="M2.5.4 3 1.81l1.5.04-1.19.91.42 1.44-1.23-.85-1.23.85.42-1.44L.5 1.85 2 1.81z"/></g></g><use xlink:href="#flr-art"/><use xlink:href="#flr-art"/><rect x="1" y="1" width="14" height="9" fill="url(#flr-gloss)"/><path d="M1 1h14v9H1zM2 2v7h12V2z" fill="#fff" fill-opacity="0.164" fill-rule="evenodd"/><rect x="1" y="1" width="14" height="9" fill="url(#flr-shade)"/><path fill="url(#flr-edge)" d="M0 0h16v11H0zM1 1v9h14V1z"/><path fill="url(#flr-edge2)" d="M0 11H16V10H0z"/><path fill="url(#flr-edge1)" d="M16 1V10H15V1z"/><path fill="url(#flr-edge2)" d="M5 0H16V1H5zM16 2V10H15V2z"/><path fill="url(#flr-edge1)" d="M0 5V10H1V5z"/><path fill="url(#flr-edge2)" d="M0 6V10H1V6z"/><path fill="url(#flr-edge1)" d="M16 3V10H15V3z"/><path fill="url(#flr-edge1)" d="M0 7V10H1V7z"/><path fill="url(#flr-edge2)" d="M16 4V10H15V4z"/><path fill="url(#flr-edge2)" d="M0 8V10H1V8z"/><path fill="url(#flr-edge1)" d="M16 5V10H15V5z"/><path fill="url(#flr-edge1)" d="M0 9V10H1V9z"/><path fill="url(#flr-edge2)" d="M16 6V10H15V6z"/><path fill="url(#flr-edge1)" d="M16 7V10H15V7z"/><path fill="url(#flr-edge2)" d="M16 8V10H15V8z"/><path fill="url(#flr-edge1)" d="M16 9V10H15V9z"/></g></svg>
