<svg xmlns="http://www.w3.org/2000/svg" width="16" height="11" viewBox="0 0 16 11"><title>Marshall Islands</title><defs><linearGradient id="fmh-gloss" gradientUnits="userSpaceOnUse" x1="1.352" y1="1.476" x2="11.384" y2="12.430"><stop offset="0.000" stop-color="#fff" stop-opacity="0.400"/><stop offset="0.308" stop-color="#fff" stop-opacity="0.314"/><stop offset="0.856" stop-color="#fff" stop-opacity="0.061"/><stop offset="1.000" stop-color="#fff" stop-opacity="0.021"/></linearGradient><linearGradient id="fmh-shade" gradientUnits="userSpaceOnUse" x1="2.739" y1="2.991" x2="11.482" y2="12.537"><stop offset="0.000" stop-color="#000" stop-opacity="0.000"/><stop offset="1.000" stop-color="#000" stop-opacity="0.060"/></linearGradient><linearGradient id="fmh-edge" gradientUnits="userSpaceOnUse" x1="2.625" y1="2.866" x2="11.802" y2="12.886"><stop offset="0.000" stop-color="#000" stop-opacity="0.048"/><stop offset="0.295" stop-color="#000" stop-opacity="0.094"/><stop offset="1.000" stop-color="#000" stop-opacity="0.217"/></linearGradient><clipPath id="fmh-clip"><rect width="16" height="11"/></clipPath></defs><g clip-path="url(#fmh-clip)"><g transform="scale(1.04447 0.95743)"><g fill-rule="evenodd"><path fill="#072ecd" d="M0 0h15.32v11.49H0z"/><path fill="#f6be09" d="M0 11.18 15.32 0v2.08L0 11.49z"/><path fill="#fff" d="m.54 11.49 14.78-7.2V2L0 11.49zM4.2.36l-.15 2.46-.65-1.57.25 1.67-1.01-1.35.66 1.54-1.31-1.02 1.02 1.29-1.49-.66 1.31.98-1.62-.21 1.53.61-2.4.22 2.4.16-1.52.62 1.6-.21-1.3.96 1.51-.67L2 6.48l1.31-.99-.65 1.5 1.05-1.31-.29 1.63.66-1.52.15 2.41.23-2.4.57 1.53-.22-1.65 1.04 1.31-.68-1.53 1.3 1.05L5.44 5.2l1.55.64-1.37-1 1.67.28-1.61-.61 2.5-.16-2.49-.23 1.64-.55-1.7.22 1.4-.98-1.58.63 1.09-1.32-1.33 1.04.64-1.59-1.03 1.35.22-1.69-.61 1.59z"/></g></g><rect x="1" y="1" width="14" height="9" fill="url(#fmh-gloss)"/><path d="M1 1h14v9H1zM2 2v7h12V2z" fill="#fff" fill-opacity="0.164" fill-rule="evenodd"/><rect x="1" y="1" width="14" height="9" fill="url(#fmh-shade)"/><path d="M0 0h16v11H0zM1 1v9h14V1z" fill="url(#fmh-edge)" fill-rule="evenodd"/></g></svg>
