<svg xmlns="http://www.w3.org/2000/svg" width="16" height="11" viewBox="0 0 16 11"><title>Namibia</title><defs><linearGradient id="fna-gloss" gradientUnits="userSpaceOnUse" x1="1.352" y1="1.476" x2="11.384" y2="12.430"><stop offset="0.000" stop-color="#fff" stop-opacity="0.400"/><stop offset="0.308" stop-color="#fff" stop-opacity="0.314"/><stop offset="0.856" stop-color="#fff" stop-opacity="0.061"/><stop offset="1.000" stop-color="#fff" stop-opacity="0.021"/></linearGradient><linearGradient id="fna-shade" gradientUnits="userSpaceOnUse" x1="2.739" y1="2.991" x2="11.482" y2="12.537"><stop offset="0.000" stop-color="#000" stop-opacity="0.000"/><stop offset="1.000" stop-color="#000" stop-opacity="0.060"/></linearGradient><linearGradient id="fna-edge" gradientUnits="userSpaceOnUse" x1="2.625" y1="2.866" x2="11.802" y2="12.886"><stop offset="0.000" stop-color="#000" stop-opacity="0.048"/><stop offset="0.295" stop-color="#000" stop-opacity="0.094"/><stop offset="1.000" stop-color="#000" stop-opacity="0.217"/></linearGradient><clipPath id="fna-clip"><rect width="16" height="11"/></clipPath></defs><g clip-path="url(#fna-clip)"><g transform="scale(1.04447 0.95743)"><defs><clipPath id="fna-na-a1"><path fill-opacity=".7" d="M0 0h15.32v11.49H0z"/></clipPath></defs><g fill-rule="evenodd" clip-path="url(#fna-na-a1)"><path fill="#fff" d="M0 0h15.32v11.49H0z"/><path fill="#0e40cd" d="m-.63 0 .02 8.28L12.27 0z"/><path fill="#090" d="m15.95 11.48-.03-8.6-12.99 8.6z"/><path fill="red" d="m-.62 8.9.01 2.59H2.2l13.73-9.21-.02-2.25-2.78-.02z"/><path fill="#ff0" d="m5.26 4.12-.53-.32-.3.53-.29-.53-.53.31.02-.61h-.61l.32-.52-.53-.3.53-.29-.31-.53.61.02v-.61l.52.31.3-.53.29.53.53-.3-.02.6h.61l-.31.52.52.3-.53.29.31.53-.61-.01z"/><path fill="#0e40cd" d="M5.56 2.69a1.11 1.11 0 0 1-2.23 0 1.12 1.12 0 0 1 2.23 0"/><path fill="#ff0" d="M5.32 2.69a.87.87 0 1 1-1.75 0 .87.87 0 0 1 1.75 0"/></g></g><rect x="1" y="1" width="14" height="9" fill="url(#fna-gloss)"/><path d="M1 1h14v9H1zM2 2v7h12V2z" fill="#fff" fill-opacity="0.164" fill-rule="evenodd"/><rect x="1" y="1" width="14" height="9" fill="url(#fna-shade)"/><path d="M0 0h16v11H0zM1 1v9h14V1z" fill="url(#fna-edge)" fill-rule="evenodd"/></g></svg>
