<svg xmlns="http://www.w3.org/2000/svg" xmlns:xlink="http://www.w3.org/1999/xlink" width="16" height="11" viewBox="0 0 16 11"><title>Peru</title><defs><linearGradient id="fpe-gloss" gradientUnits="userSpaceOnUse" x1="1.352" y1="1.476" x2="11.384" y2="12.430"><stop offset="0.000" stop-color="#fff" stop-opacity="0.400"/><stop offset="0.308" stop-color="#fff" stop-opacity="0.314"/><stop offset="0.856" stop-color="#fff" stop-opacity="0.061"/><stop offset="1.000" stop-color="#fff" stop-opacity="0.021"/></linearGradient><linearGradient id="fpe-shade" gradientUnits="userSpaceOnUse" x1="2.739" y1="2.991" x2="11.482" y2="12.537"><stop offset="0.000" stop-color="#000" stop-opacity="0.000"/><stop offset="1.000" stop-color="#000" stop-opacity="0.060"/></linearGradient><linearGradient id="fpe-edge" gradientUnits="userSpaceOnUse" x1="2.391" y1="2.611" x2="11.076" y2="12.094"><stop offset="0" stop-color="#f4f4f4"/><stop offset="0.463" stop-color="#e4e4e4"/><stop offset="1" stop-color="#d0d0d0"/></linearGradient><linearGradient id="fpe-edge1" gradientUnits="userSpaceOnUse" x1="2.391" y1="2.611" x2="11.076" y2="12.094"><stop offset="0" stop-color="#ff0000"/><stop offset="0.463" stop-color="#f20000"/><stop offset="1" stop-color="#dd0000"/></linearGradient><clipPath id="fpe-clip"><rect width="16" height="11"/></clipPath></defs><g clip-path="url(#fpe-clip)"><g id="fpe-art"><g transform="scale(1.04447 0.95743)"><path fill="red" d="M0 0h15.32v11.49H0z"/><path fill="#fff" d="M4.7871 0L10.5317 0L10.5317 11.49L4.7871 11.49z"/></g></g><use xlink:href="#fpe-art"/><use xlink:href="#fpe-art"/><rect x="1" y="1" width="14" height="9" fill="url(#fpe-gloss)"/><path d="M1 1h14v9H1zM2 2v7h12V2z" fill="#fff" fill-opacity="0.164" fill-rule="evenodd"/><rect x="1" y="1" width="14" height="9" fill="url(#fpe-shade)"/><path fill="url(#fpe-edge1)" d="M0 0h16v11H0zM1 1v9h14V1z"/><path fill="url(#fpe-edge)" d="M5 0H16V1H5zM5 11H16V10H5z"/><path fill="url(#fpe-edge1)" d="M11 0H16V1H11zM11 11H16V10H11z"/></g></svg>
