<svg xmlns="http://www.w3.org/2000/svg" width="16" height="11" viewBox="0 0 16 11"><title>Solomon Islands</title><defs><linearGradient id="fsb-gloss" gradientUnits="userSpaceOnUse" x1="1.352" y1="1.476" x2="11.384" y2="12.430"><stop offset="0.000" stop-color="#fff" stop-opacity="0.400"/><stop offset="0.308" stop-color="#fff" stop-opacity="0.314"/><stop offset="0.856" stop-color="#fff" stop-opacity="0.061"/><stop offset="1.000" stop-color="#fff" stop-opacity="0.021"/></linearGradient><linearGradient id="fsb-shade" gradientUnits="userSpaceOnUse" x1="2.739" y1="2.991" x2="11.482" y2="12.537"><stop offset="0.000" stop-color="#000" stop-opacity="0.000"/><stop offset="1.000" stop-color="#000" stop-opacity="0.060"/></linearGradient><linearGradient id="fsb-edge" gradientUnits="userSpaceOnUse" x1="2.625" y1="2.866" x2="11.802" y2="12.886"><stop offset="0.000" stop-color="#000" stop-opacity="0.048"/><stop offset="0.295" stop-color="#000" stop-opacity="0.094"/><stop offset="1.000" stop-color="#000" stop-opacity="0.217"/></linearGradient><clipPath id="fsb-clip"><rect width="16" height="11"/></clipPath></defs><g clip-path="url(#fsb-clip)"><g transform="scale(1.04447 0.95743)"><defs><clipPath id="fsb-sb-a1"><path fill-opacity=".7" d="M0 0h15.32v11.49H0z"/></clipPath></defs><g fill-rule="evenodd" clip-path="url(#fsb-sb-a1)"><path fill="#03c" d="M0 11.38 22.16 0H0z"/><path fill="#090" d="M22.98 0 .61 11.49h22.37z"/><path fill="#ff0" d="M22.98 0h-1.23L0 10.89v.6h1.23L22.98.62z"/><path fill="#fff" d="m1.6.2.27.78h.86l-.7.47.27.77-.7-.47-.7.48.27-.78-.7-.47h.87zm4.29 0 .27.78h.86l-.7.47.27.78-.7-.48-.7.48.27-.77-.7-.48h.86zm0 3.25.27.77h.86l-.7.48.27.77-.7-.48-.7.48.27-.77-.7-.48h.87zM3.76 1.84l.27.78h.86l-.7.47.27.78-.7-.48-.7.48.27-.78-.7-.47h.86zM1.6 3.45l.27.77h.86l-.7.48.27.77-.7-.48-.7.48.27-.77-.7-.48h.86z"/></g></g><rect x="1" y="1" width="14" height="9" fill="url(#fsb-gloss)"/><path d="M1 1h14v9H1zM2 2v7h12V2z" fill="#fff" fill-opacity="0.164" fill-rule="evenodd"/><rect x="1" y="1" width="14" height="9" fill="url(#fsb-shade)"/><path d="M0 0h16v11H0zM1 1v9h14V1z" fill="url(#fsb-edge)" fill-rule="evenodd"/></g></svg>
