<svg xmlns="http://www.w3.org/2000/svg" width="16" height="11" viewBox="0 0 16 11"><title>Samoa</title><defs><linearGradient id="fws-gloss" gradientUnits="userSpaceOnUse" x1="1.352" y1="1.476" x2="11.384" y2="12.430"><stop offset="0.000" stop-color="#fff" stop-opacity="0.400"/><stop offset="0.308" stop-color="#fff" stop-opacity="0.314"/><stop offset="0.856" stop-color="#fff" stop-opacity="0.061"/><stop offset="1.000" stop-color="#fff" stop-opacity="0.021"/></linearGradient><linearGradient id="fws-shade" gradientUnits="userSpaceOnUse" x1="2.739" y1="2.991" x2="11.482" y2="12.537"><stop offset="0.000" stop-color="#000" stop-opacity="0.000"/><stop offset="1.000" stop-color="#000" stop-opacity="0.060"/></linearGradient><linearGradient id="fws-edge" gradientUnits="userSpaceOnUse" x1="2.625" y1="2.866" x2="11.802" y2="12.886"><stop offset="0.000" stop-color="#000" stop-opacity="0.048"/><stop offset="0.295" stop-color="#000" stop-opacity="0.094"/><stop offset="1.000" stop-color="#000" stop-opacity="0.217"/></linearGradient><clipPath id="fws-clip"><rect width="16" height="11"/></clipPath></defs><g clip-path="url(#fws-clip)"><g transform="scale(1.04447 0.95743)"><g fill-rule="evenodd"><path fill="red" d="M0 0h15.32v11.49H0z"/><path fill="#0056bc" d="M0 0h7.66v5.74H0z"/><path fill="#fff" d="m4.31 5.49-.5-.34-.47.34.15-.6-.45-.36.58-.03.2-.57.21.57.57.02-.45.39zm-.09-3.97-.4-.25-.38.25.11-.48L3.2.73 3.66.7l.17-.45.18.45.46.04-.35.32zM2.47 2.95l-.38-.26-.4.26.13-.47-.36-.3.45-.03.17-.45.17.45.46.03-.35.3zm3.51-.32-.36-.24-.36.24.1-.44-.33-.28.43-.03.16-.42.16.42.43.03-.33.29zM4.95 3.67l-.24-.15-.25.16.06-.3-.22-.2.29-.02.11-.28.12.28.28.02-.21.2z"/></g></g><rect x="1" y="1" width="14" height="9" fill="url(#fws-gloss)"/><path d="M1 1h14v9H1zM2 2v7h12V2z" fill="#fff" fill-opacity="0.164" fill-rule="evenodd"/><rect x="1" y="1" width="14" height="9" fill="url(#fws-shade)"/><path d="M0 0h16v11H0zM1 1v9h14V1z" fill="url(#fws-edge)" fill-rule="evenodd"/></g></svg>
